<?xml version="1.0" standalone="no"?><svg xmlns="http://www.w3.org/2000/svg" viewBox="0 0 1440 320"><path fill="#08520d" fill-opacity="1" d="M0,96L34.3,122.7C68.6,149,137,203,206,218.7C274.3,235,343,213,411,181.3C480,149,549,107,617,101.3C685.7,96,754,128,823,149.3C891.4,171,960,181,1029,165.3C1097.1,149,1166,107,1234,101.3C1302.9,96,1371,128,1406,144L1440,160L1440,0L1405.7,0C1371.4,0,1303,0,1234,0C1165.7,0,1097,0,1029,0C960,0,891,0,823,0C754.3,0,686,0,617,0C548.6,0,480,0,411,0C342.9,0,274,0,206,0C137.1,0,69,0,34,0L0,0Z"></path></svg>