<?xml version="1.0" standalone="no"?><svg xmlns="http://www.w3.org/2000/svg" viewBox="0 0 1440 320"><path fill="#336105" fill-opacity="1" d="M0,288L14.1,256C28.2,224,56,160,85,154.7C112.9,149,141,203,169,202.7C197.6,203,226,149,254,112C282.4,75,311,53,339,48C367.1,43,395,53,424,74.7C451.8,96,480,128,508,138.7C536.5,149,565,139,593,122.7C621.2,107,649,85,678,74.7C705.9,64,734,64,762,101.3C790.6,139,819,213,847,218.7C875.3,224,904,160,932,154.7C960,149,988,203,1016,186.7C1044.7,171,1073,85,1101,80C1129.4,75,1158,149,1186,170.7C1214.1,192,1242,160,1271,122.7C1298.8,85,1327,43,1355,48C1383.5,53,1412,107,1426,133.3L1440,160L1440,0L1425.9,0C1411.8,0,1384,0,1355,0C1327.1,0,1299,0,1271,0C1242.4,0,1214,0,1186,0C1157.6,0,1129,0,1101,0C1072.9,0,1045,0,1016,0C988.2,0,960,0,932,0C903.5,0,875,0,847,0C818.8,0,791,0,762,0C734.1,0,706,0,678,0C649.4,0,621,0,593,0C564.7,0,536,0,508,0C480,0,452,0,424,0C395.3,0,367,0,339,0C310.6,0,282,0,254,0C225.9,0,198,0,169,0C141.2,0,113,0,85,0C56.5,0,28,0,14,0L0,0Z"></path></svg>